<?xml version="1.0" standalone="no"?><!DOCTYPE svg PUBLIC "-//W3C//DTD SVG 1.1//EN" "http://www.w3.org/Graphics/SVG/1.1/DTD/svg11.dtd"><svg t="1685449604309" class="icon" viewBox="0 0 1558 1024" version="1.1" xmlns="http://www.w3.org/2000/svg" p-id="2911" zn_id="85" xmlns:xlink="http://www.w3.org/1999/xlink" width="304.296875" height="200"><path d="M176.836827 699.757317c5.659994 0.112 10.18399 4.753995 10.18399 10.441989 0 5.766994-4.467996 10.44799-10.18399 10.44799H155.849848v21.09998a10.41399 10.41399 0 0 1-10.39199 10.23399 10.19499 10.19499 0 0 1-7.319993-2.936997 10.30199 10.30199 0 0 1-3.066997-7.302993v-21.09998h-20.985979a10.41999 10.41999 0 0 1-10.18399-10.44199c0-5.760994 4.467996-10.44199 10.18399-10.441989h20.985979v-21.09998c0.113-5.681994 4.726995-10.23399 10.38699-10.23399 5.738994 0 10.39199 4.489996 10.39199 10.23999v21.09998h20.985979z m1350.496681-83.551919v-21.098979a10.30199 10.30199 0 0 0-3.065997-7.296993 10.19499 10.19499 0 0 0-7.325992-2.936997 10.41399 10.41399 0 0 0-10.38599 10.23999v21.092979h-20.98598a10.21999 10.21999 0 0 0-7.263993 3.082997 10.33499 10.33499 0 0 0-2.925997 7.359993c0 5.597995 4.574996 10.44199 10.18399 10.44199h20.98698v21.099979c0 5.743994 4.657995 10.23999 10.39099 10.23999a10.41399 10.41399 0 0 0 10.391989-10.23999v-21.099979h20.98698c5.715994 0 10.18299-4.674995 10.18299-10.44199 0-5.682994-4.522996-10.32999-10.18299-10.44299h-20.98698zM772.439246 960.860062H249.299757a20.64298 20.64298 0 0 1-14.679986-6.115994 20.86298 20.86298 0 0 1-6.035994-14.769986c0-11.532989 9.412991-20.88998 20.71598-20.88998h94.241908a83.342919 83.342919 0 0 1-11.06199-41.674959V271.443735a83.709918 83.709918 0 0 1 24.395976-59.059942 82.836919 82.836919 0 0 1 58.806943-24.389977h62.261939v-20.991979a83.709918 83.709918 0 0 1 24.389976-59.059942 82.836919 82.836919 0 0 1 58.811943-24.389977H1059.698965a82.797919 82.797919 0 0 1 58.823943 24.378977 83.663918 83.663918 0 0 1 24.379976 59.070942v605.971408a83.382919 83.382919 0 0 1-11.073989 41.668959h187.712816c11.489989 0 20.79998 13.772987 20.79998 20.88998 0 7.117993-9.248991 20.88498-20.78298 20.88498H997.443026v20.991979a83.382919 83.382919 0 0 1-11.078989 41.674959h11.139989c11.427989 0 20.71698 9.271991 20.71698 20.88998 0 11.529989-9.412991 20.88598-20.71698 20.88598h-109.319893a41.819959 41.819959 0 0 1-6.379994 50.86195A41.34796 41.34796 0 0 1 852.417168 1023.999a41.32896 41.32896 0 0 1-29.379972-12.276988l-50.59895-50.86195z m142.049861-41.77596c22.859978 0 41.39196-18.589982 41.39196-41.882959V270.459736c0-22.561978-17.947982-40.68996-40.103961-40.68996h-501.62951c-22.151978 0-40.105961 18.217982-40.105961 40.68996v606.747407c0 23.123977 18.701982 41.876959 41.370959 41.876959h315.442692l-10.679989-10.757989a41.842959 41.842959 0 0 1-10.80199-40.373961l-19.618981-19.74298c-61.11994 45.735955-146.988856 36.329965-196.866807-21.571979-49.882951-57.894943-46.883954-144.669859 6.875993-198.948806 53.922947-54.394947 140.517863-57.590944 198.266806-7.313993 57.743944 50.271951 66.965935 136.883866 21.10498 198.301807l19.635981 19.73698a41.26996 41.26996 0 0 1 40.17196 10.84199l69.463932 69.828931h66.080936z m145.479858-104.441898c22.876978-0.113 41.36596-18.780982 41.376959-41.775959V167.108837c0-23.146977-18.539982-41.781959-41.376959-41.781959H560.853452c-22.865978 0.13-41.34296 18.792982-41.353959 41.781959v20.884979h394.739614a82.797919 82.797919 0 0 1 58.823943 24.372977 83.663918 83.663918 0 0 1 24.379976 59.076942v543.198469h62.524939zM264.945741 46.996954h30.96197a15.691985 15.691985 0 0 1 15.792985 15.669985c0 8.646992-7.066993 15.662985-15.792985 15.662985h-30.96197v31.124969c0 8.777991-6.919993 15.871985-15.584985 15.871985a15.646985 15.646985 0 0 1-11.061989-4.691996 15.809985 15.809985 0 0 1-4.522995-11.179989V78.329924h-30.96197a15.607985 15.607985 0 0 1-11.139989-4.528996 15.769985 15.769985 0 0 1-4.652996-11.139989c0-8.641992 7.065993-15.663985 15.792985-15.663985h30.96197v-31.11997C233.775772 7.099993 240.695765 0 249.359756 0c8.602992 0 15.584985 7.099993 15.584985 15.877984v31.11997zM41.499959 919.084102h124.803879c11.427989 0 20.71698 9.271991 20.716979 20.88998 0 11.529989-9.412991 20.88598-20.716979 20.88598H41.499959a20.64298 20.64298 0 0 1-14.684985-6.115994 20.86298 20.86298 0 0 1-6.036994-14.769986c0-11.532989 9.412991-20.88998 20.721979-20.88998z m661.492354-215.02879c-9.603991-36.047965-37.617963-64.201937-73.479928-73.862927a103.547899 103.547899 0 0 0-100.369902 27.034973c-40.58196 40.79096-40.58196 106.929896 0 147.725856 40.58396 40.79096 106.377896 40.79096 146.960857 0A104.824898 104.824898 0 0 0 702.999313 704.055312zM457.159554 313.326694c0-11.533989 9.294991-20.87998 20.760979-20.88998h228.599777c11.476989 0 20.78298 9.349991 20.78298 20.88998 0 11.533989-9.305991 20.88498-20.78298 20.88498H477.943533a20.66598 20.66598 0 0 1-14.712985-6.098994 20.87998 20.87998 0 0 1-6.070994-14.785986z m20.636979 83.551918H810.569208c11.387989 0 20.63198 9.271991 20.63198 20.88498 0 11.533989-9.243991 20.88998-20.63198 20.88998H477.791533a20.60398 20.60398 0 0 1-14.639985-6.131994 20.81798 20.81798 0 0 1-5.997994-14.757986c0-11.528989 9.249991-20.88498 20.637979-20.88498zM457.159554 522.20549c0-11.533989 9.271991-20.88498 20.738979-20.88498h145.542858a20.76698 20.76698 0 0 1 20.73798 20.88498c0 11.533989-9.265991 20.89098-20.73798 20.89098H477.903533a20.64298 20.64298 0 0 1-14.684985-6.109994 20.86298 20.86298 0 0 1-6.053994-14.779986zM8.349992 365.545643a62.947939 62.947939 0 0 1 0-62.666939 62.283939 62.283939 0 0 1 53.989947-31.332969c34.433966 0 62.339939 28.057973 62.339939 62.665939s-27.905973 62.671939-62.339939 62.671938a62.283939 62.283939 0 0 1-53.989947-31.332969z m80.990921-15.663985a31.473969 31.473969 0 0 0 0-31.339969 31.14197 31.14197 0 0 0-26.999974-15.662985c-17.216983 0-31.16497 14.031986-31.164969 31.33897 0 17.294983 13.952986 31.321969 31.163969 31.326969a31.14197 31.14197 0 0 0 27.000974-15.662985z m1199.023829-140.996862c0-34.607966 27.906973-62.666939 62.339939-62.666939 34.427966 0 62.339939 28.058973 62.339939 62.666939 0 34.601966-27.911973 62.659939-62.339939 62.659939-34.432966 0-62.339939-28.051973-62.339939-62.659939z m89.335913 15.663985a31.473969 31.473969 0 0 0 0-31.33397 31.14197 31.14197 0 0 0-26.994974-15.663984c-17.216983 0-31.16997 14.026986-31.16997 31.333969 0 17.299983 13.952986 31.326969 31.16997 31.332969a31.14197 31.14197 0 0 0 26.994974-15.669984z" fill="#8A96A3" opacity=".3" p-id="2912"></path></svg>